<?xml version="1.0" encoding="UTF-8" standalone="no"?>
<svg
   xmlns:dc="http://purl.org/dc/elements/1.1/"
   xmlns:cc="http://creativecommons.org/ns#"
   xmlns:rdf="http://www.w3.org/1999/02/22-rdf-syntax-ns#"
   xmlns:svg="http://www.w3.org/2000/svg"
   xmlns="http://www.w3.org/2000/svg"
   xmlns:sodipodi="http://sodipodi.sourceforge.net/DTD/sodipodi-0.dtd"
   xmlns:inkscape="http://www.inkscape.org/namespaces/inkscape"
   width="62"
   height="248"
   viewBox="0 0 62 248"
   id="svg2"
   version="1.1"
   inkscape:version="0.91 r13725"
   sodipodi:docname="menu-icons.svg"
   style="shape-rendering:crispEdges">
  <sodipodi:namedview
     pagecolor="#286edf"
     bordercolor="#666666"
     borderopacity="1"
     objecttolerance="10"
     gridtolerance="10"
     guidetolerance="10"
     inkscape:pageopacity="1"
     inkscape:pageshadow="2"
     inkscape:window-width="1168"
     inkscape:window-height="724"
     id="namedview8"
     showgrid="false"
     inkscape:zoom="13.350176"
     inkscape:cx="34.627429"
     inkscape:cy="150.29741"
     inkscape:window-x="76"
     inkscape:window-y="0"
     inkscape:window-maximized="0"
     inkscape:current-layer="svg2"
     showguides="true"
     inkscape:guide-bbox="true"
     inkscape:snap-bbox="true"
     inkscape:bbox-paths="true"
     inkscape:bbox-nodes="true"
     inkscape:snap-bbox-edge-midpoints="true"
     inkscape:snap-bbox-midpoints="true">
    <sodipodi:guide
       position="0,62"
       orientation="0,1"
       id="guide4222"
       inkscape:label=""
       inkscape:color="rgb(0,0,255)" />
    <sodipodi:guide
       position="0,124"
       orientation="0,1"
       id="guide4224"
       inkscape:label=""
       inkscape:color="rgb(0,0,255)" />
    <sodipodi:guide
       position="0,186"
       orientation="0,1"
       id="guide4226"
       inkscape:label=""
       inkscape:color="rgb(0,0,255)" />
    <sodipodi:guide
       position="0,248"
       orientation="0,1"
       id="guide4228"
       inkscape:label=""
       inkscape:color="rgb(0,0,255)" />
    <sodipodi:guide
       position="0,0"
       orientation="0,1"
       id="guide4230"
       inkscape:label=""
       inkscape:color="rgb(0,0,255)" />
    <sodipodi:guide
       position="31,0"
       orientation="1,0"
       id="guide4232"
       inkscape:label=""
       inkscape:color="rgb(0,0,255)" />
    <sodipodi:guide
       position="0,217"
       orientation="0,1"
       id="guide4236"
       inkscape:label=""
       inkscape:color="rgb(0,0,255)" />
    <sodipodi:guide
       position="0,155"
       orientation="0,1"
       id="guide4238"
       inkscape:label=""
       inkscape:color="rgb(0,0,255)" />
    <sodipodi:guide
       position="0,93"
       orientation="0,1"
       id="guide4243"
       inkscape:label=""
       inkscape:color="rgb(0,0,255)" />
    <sodipodi:guide
       position="0,31"
       orientation="0,1"
       id="guide4245"
       inkscape:label=""
       inkscape:color="rgb(0,0,255)" />
    <sodipodi:guide
       position="19,0"
       orientation="1,0"
       id="guide4330"
       inkscape:label=""
       inkscape:color="rgb(0,0,255)" />
    <sodipodi:guide
       position="43,0"
       orientation="1,0"
       id="guide4332"
       inkscape:label=""
       inkscape:color="rgb(0,0,255)" />
    <sodipodi:guide
       position="0,167"
       orientation="0,1"
       id="guide4336"
       inkscape:label=""
       inkscape:color="rgb(0,0,255)" />
    <sodipodi:guide
       position="0,143"
       orientation="0,1"
       id="guide4338"
       inkscape:label=""
       inkscape:color="rgb(0,0,255)" />
    <sodipodi:guide
       position="0,229"
       orientation="0,1"
       id="guide4340"
       inkscape:label=""
       inkscape:color="rgb(0,0,255)" />
    <sodipodi:guide
       position="0,205"
       orientation="0,1"
       id="guide4342"
       inkscape:label=""
       inkscape:color="rgb(0,0,255)" />
    <sodipodi:guide
       position="0,105"
       orientation="0,1"
       id="guide4344"
       inkscape:label=""
       inkscape:color="rgb(0,0,255)" />
    <sodipodi:guide
       position="0,81"
       orientation="0,1"
       id="guide4346"
       inkscape:label=""
       inkscape:color="rgb(0,0,255)" />
    <sodipodi:guide
       position="0,43"
       orientation="0,1"
       id="guide4348"
       inkscape:label=""
       inkscape:color="rgb(0,0,255)" />
    <sodipodi:guide
       position="0,19"
       orientation="0,1"
       id="guide4350"
       inkscape:label=""
       inkscape:color="rgb(0,0,255)" />
  </sodipodi:namedview>
  <defs
     id="defs4" />
  <metadata
     id="metadata7">
    <rdf:RDF>
      <cc:Work
         rdf:about="">
        <dc:format>image/svg+xml</dc:format>
        <dc:type
           rdf:resource="http://purl.org/dc/dcmitype/StillImage" />
        <dc:title />
        <dc:rights>
          <cc:Agent>
            <dc:title>Copyright © 2017 Maxim Rysevets</dc:title>
          </cc:Agent>
        </dc:rights>
        <dc:creator>
          <cc:Agent>
            <dc:title>Maxim Rysevets</dc:title>
          </cc:Agent>
        </dc:creator>
      </cc:Work>
    </rdf:RDF>
  </metadata>
  <g
     id="ico_home">
    <path
       style="color:#000000;font-style:normal;font-variant:normal;font-weight:normal;font-stretch:normal;font-size:medium;line-height:normal;font-family:sans-serif;text-indent:0;text-align:start;text-decoration:none;text-decoration-line:none;text-decoration-style:solid;text-decoration-color:#000000;letter-spacing:normal;word-spacing:normal;text-transform:none;direction:ltr;block-progression:tb;writing-mode:lr-tb;baseline-shift:baseline;text-anchor:start;white-space:normal;clip-rule:nonzero;display:inline;overflow:visible;visibility:visible;opacity:1;isolation:auto;mix-blend-mode:normal;color-interpolation:sRGB;color-interpolation-filters:linearRGB;solid-color:#000000;solid-opacity:1;fill:#ffffff;fill-opacity:1;fill-rule:evenodd;stroke:none;stroke-width:1;stroke-linecap:butt;stroke-linejoin:miter;stroke-miterlimit:4;stroke-dasharray:none;stroke-dashoffset:0;stroke-opacity:1;color-rendering:auto;image-rendering:auto;shape-rendering:auto;text-rendering:auto;enable-background:accumulate"
       d="m 19,19 0,0.5 0,23.5 24,0 0,-24 -24,0 z m 1,1 22,0 0,22 -22,0 0,-22 z"
       id="ico_home_line"
       inkscape:connector-curvature="0" />
    <path
       style="opacity:1;fill:#ffffff;fill-opacity:0.17254902;fill-rule:evenodd;stroke:none;stroke-width:1;stroke-miterlimit:4;stroke-dasharray:none;stroke-opacity:1"
       d="m 19.5,19.5 22.999998,0 0,22.999998 -22.999998,0 z"
       id="ico_home_background" />
  </g>
  <g
     id="ico_settings">
    <path
       id="ico_settings_line"
       d="m 27.826172,80.939453 c -0.411907,0.01 -0.89179,0.16867 -1.582031,0.457031 -0.920323,0.384481 -1.414303,0.665464 -1.689453,1.115235 -0.137576,0.224885 -0.179266,0.503224 -0.148438,0.71875 0.03083,0.215525 0.104948,0.375489 0.166016,0.517578 0.122135,0.28418 0.207551,0.471565 0.171875,0.742187 -0.03568,0.27062 -0.213279,0.693981 -0.847657,1.333985 -0.634377,0.640002 -1.054184,0.817684 -1.322265,0.853515 -0.268081,0.03583 -0.452973,-0.04838 -0.734375,-0.171875 -0.140702,-0.06175 -0.30021,-0.136696 -0.513672,-0.167968 -0.213464,-0.03127 -0.488088,0.0078 -0.710938,0.146484 -0.445698,0.277472 -0.722041,0.778171 -1.103515,1.707031 -0.381474,0.928859 -0.536477,1.479682 -0.416016,1.994141 0.06023,0.257228 0.225683,0.480935 0.398438,0.611328 0.172754,0.130392 0.337766,0.193121 0.480468,0.25 0.285404,0.113757 0.476307,0.185518 0.640625,0.402344 0.164318,0.216826 0.334296,0.641462 0.333985,1.546875 -3.1e-4,0.905414 -0.169519,1.330165 -0.333985,1.546875 -0.164467,0.216711 -0.355142,0.288786 -0.640625,0.402343 -0.14274,0.05678 -0.309579,0.117775 -0.482421,0.248047 -0.172845,0.130272 -0.33803,0.354141 -0.398438,0.611329 -0.120813,0.514373 0.03322,1.066967 0.414062,1.996093 0.380839,0.929127 0.658006,1.427296 1.103516,1.705078 0.222754,0.138891 0.497454,0.181514 0.710938,0.150391 0.213483,-0.03112 0.372928,-0.106317 0.513672,-0.167969 0.281487,-0.123303 0.466318,-0.207892 0.734374,-0.171875 0.268057,0.03602 0.688326,0.215019 1.322266,0.855474 0.633938,0.64043 0.810213,1.06334 0.845703,1.33398 0.03549,0.27065 -0.0476,0.45613 -0.169922,0.74023 -0.06116,0.14205 -0.136992,0.30598 -0.167968,0.52149 -0.03098,0.2155 0.0091,0.49181 0.146484,0.7168 0.274842,0.44996 0.769394,0.72815 1.689453,1.11328 0.920059,0.38512 1.466979,0.54152 1.976563,0.41992 0.254792,-0.0608 0.476311,-0.22794 0.605468,-0.40235 0.129157,-0.17441 0.189754,-0.3403 0.246094,-0.48437 0.112679,-0.28814 0.183666,-0.48256 0.398438,-0.64844 0.214772,-0.16589 0.636368,-0.33626 1.533203,-0.33594 0.896835,3.1e-4 1.318546,0.17186 1.533203,0.3379 0.214658,0.16603 0.285956,0.35826 0.398437,0.64648 0.05624,0.14411 0.117057,0.31184 0.246094,0.48633 0.129037,0.1745 0.35072,0.34136 0.605469,0.40234 0.5095,0.12197 1.056239,-0.0315 1.976562,-0.41601 0.920322,-0.38449 1.414302,-0.66547 1.689453,-1.11524 0.137575,-0.22489 0.179266,-0.50322 0.148438,-0.71875 -0.03083,-0.21552 -0.104948,-0.37549 -0.166016,-0.51758 -0.122135,-0.28418 -0.207552,-0.47156 -0.171875,-0.74218 0.03568,-0.27062 0.21328,-0.69399 0.847657,-1.33399 0.634378,-0.640006 1.054184,-0.817684 1.322265,-0.853514 0.268081,-0.03583 0.452972,0.04838 0.734375,0.171875 0.140701,0.06175 0.30021,0.136694 0.513672,0.167968 0.213462,0.03127 0.488088,-0.0078 0.710938,-0.146484 0.445698,-0.277472 0.722042,-0.778172 1.103515,-1.707031 0.381474,-0.92886 0.536478,-1.479682 0.416016,-1.994141 -0.06023,-0.257228 -0.225683,-0.480935 -0.398438,-0.611328 -0.172754,-0.130393 -0.337767,-0.193121 -0.480468,-0.25 -0.285405,-0.113757 -0.476307,-0.185518 -0.640625,-0.402344 -0.164318,-0.216827 -0.334295,-0.641461 -0.333985,-1.546875 3.1e-4,-0.905413 0.169518,-1.330164 0.333985,-1.546875 0.164466,-0.216711 0.355142,-0.288786 0.640625,-0.402343 0.14274,-0.05678 0.309578,-0.117775 0.482421,-0.248047 0.172844,-0.130272 0.338031,-0.354142 0.398438,-0.611329 0.120813,-0.514373 -0.03322,-1.066966 -0.414062,-1.996093 -0.380838,-0.929126 -0.658006,-1.427296 -1.103516,-1.705078 -0.222753,-0.138891 -0.497454,-0.181514 -0.710938,-0.150391 -0.213483,0.03112 -0.372928,0.106316 -0.513672,0.167969 -0.281488,0.123303 -0.466318,0.207893 -0.734374,0.171875 -0.268057,-0.03602 -0.688327,-0.215024 -1.322266,-0.855469 -0.633939,-0.640446 -0.810212,-1.063338 -0.845703,-1.333984 -0.03549,-0.270645 0.0476,-0.456141 0.169922,-0.740235 0.06117,-0.142047 0.136993,-0.305979 0.167968,-0.521484 0.03098,-0.215505 -0.0091,-0.491816 -0.146484,-0.716797 -0.274843,-0.449962 -0.769394,-0.728158 -1.689453,-1.113281 -0.920059,-0.385123 -1.466979,-0.541536 -1.976563,-0.419922 -0.254791,0.06081 -0.47631,0.227936 -0.605468,0.402344 -0.129157,0.174406 -0.189754,0.340308 -0.246094,0.484375 -0.112679,0.288134 -0.183667,0.482547 -0.398438,0.648437 -0.214772,0.16589 -0.636368,0.336251 -1.533203,0.335938 -0.896835,-3.13e-4 -1.318545,-0.171851 -1.533203,-0.337891 -0.214658,-0.166039 -0.285956,-0.35827 -0.398437,-0.646484 -0.05624,-0.144106 -0.117056,-0.311832 -0.246094,-0.486329 -0.129038,-0.174497 -0.350718,-0.341357 -0.605469,-0.402343 -0.127375,-0.03049 -0.257229,-0.04434 -0.394531,-0.04102 z m 0.166016,1.019531 c 0.03981,0.0095 0.01527,-0.0042 0.03711,0.02539 0.02184,0.02953 0.06436,0.116598 0.117187,0.251953 0.105651,0.27071 0.27131,0.730074 0.71875,1.076172 0.44744,0.346097 1.114501,0.546517 2.138672,0.546875 1.024169,3.57e-4 1.689043,-0.199137 2.136719,-0.544922 0.447677,-0.345787 0.614868,-0.805535 0.720703,-1.076172 0.05292,-0.135317 0.09532,-0.224388 0.117188,-0.253906 0.02186,-0.02952 -7.28e-4,-0.01394 0.03906,-0.02344 0.07962,-0.019 0.51077,0.01148 1.365234,0.36914 0.854465,0.357665 1.181666,0.644537 1.22461,0.714844 0.02147,0.03516 0.0111,0.0085 0.0059,0.04492 -0.0052,0.03647 -0.03435,0.128297 -0.0918,0.261718 -0.114901,0.266842 -0.320072,0.711249 -0.246093,1.275391 0.07398,0.564143 0.404959,1.180732 1.128906,1.912109 0.723948,0.73138 1.335785,1.065549 1.894531,1.140626 0.558746,0.07508 0.997326,-0.132232 1.261719,-0.248047 0.132197,-0.05791 0.225587,-0.08849 0.261719,-0.09375 0.03613,-0.0053 0.0081,-0.01193 0.04297,0.0098 0.06961,0.0434 0.353345,0.37149 0.707032,1.234375 0.353685,0.862886 0.384111,1.300487 0.365234,1.38086 -0.0094,0.04019 0.0039,0.01506 -0.02539,0.03711 -0.02925,0.02205 -0.115928,0.06581 -0.25,0.119141 -0.268145,0.106661 -0.723587,0.272889 -1.066406,0.724609 -0.342818,0.45172 -0.540661,1.126188 -0.541015,2.160156 -3.55e-4,1.033966 0.196553,1.706244 0.539062,2.158203 0.34251,0.451959 0.79638,0.619715 1.064453,0.726563 0.134036,0.05342 0.222715,0.09708 0.251953,0.11914 0.02924,0.02207 0.01598,-0.003 0.02539,0.03711 0.01882,0.08039 -0.01096,0.516268 -0.365235,1.378906 -0.354277,0.862638 -0.639342,1.192972 -0.708984,1.236328 -0.03482,0.02168 -0.0088,0.01307 -0.04492,0.0078 -0.03613,-0.0053 -0.127609,-0.03575 -0.259765,-0.09375 -0.264314,-0.116 -0.702922,-0.322733 -1.261719,-0.248047 -0.558797,0.07469 -1.170083,0.4078 -1.894531,1.138672 -0.724449,0.730879 -1.056496,1.348019 -1.13086,1.912109 -0.07436,0.56409 0.131376,1.00652 0.246094,1.27344 0.05736,0.13346 0.08854,0.22915 0.09375,0.26563 0.0052,0.0365 0.0098,0.008 -0.01172,0.043 -0.04299,0.0703 -0.367947,0.35777 -1.222656,0.71485 -0.85471,0.35706 -1.287576,0.38626 -1.367188,0.36719 -0.03981,-0.01 -0.01527,0.004 -0.03711,-0.0254 -0.02184,-0.0295 -0.06436,-0.1166 -0.117187,-0.25195 -0.105651,-0.27071 -0.27131,-0.73007 -0.71875,-1.07617 -0.44744,-0.3461 -1.114502,-0.54652 -2.138672,-0.54688 -1.02417,-3.6e-4 -1.689042,0.19915 -2.136719,0.54493 -0.447677,0.34579 -0.614867,0.80554 -0.720703,1.07617 -0.05292,0.13532 -0.09533,0.22439 -0.117188,0.2539 -0.02186,0.0295 7.28e-4,0.0139 -0.03906,0.0234 -0.07962,0.019 -0.51077,-0.0115 -1.365234,-0.36914 -0.854466,-0.35767 -1.181665,-0.64454 -1.22461,-0.71484 -0.02147,-0.0352 -0.0111,-0.009 -0.0059,-0.0449 0.0052,-0.0365 0.03435,-0.1283 0.0918,-0.26172 0.1149,-0.26684 0.320072,-0.71125 0.246093,-1.27539 -0.07398,-0.56415 -0.404958,-1.18073 -1.128906,-1.912115 -0.723948,-0.731379 -1.335785,-1.065551 -1.894531,-1.140626 -0.558746,-0.07508 -0.997326,0.132232 -1.261719,0.248047 -0.132197,0.05791 -0.225587,0.08848 -0.261719,0.09375 -0.03613,0.0053 -0.0081,0.01193 -0.04297,-0.0098 -0.06961,-0.0434 -0.353346,-0.37149 -0.707032,-1.234375 -0.353686,-0.862886 -0.384111,-1.300488 -0.365234,-1.38086 0.0094,-0.04019 -0.002,-0.01506 0.02734,-0.03711 0.02925,-0.02205 0.113975,-0.06581 0.248047,-0.119141 0.268145,-0.106662 0.723587,-0.272889 1.066406,-0.724609 0.342818,-0.45172 0.540661,-1.126188 0.541015,-2.160156 3.55e-4,-1.033966 -0.196553,-1.706244 -0.539062,-2.158203 -0.34251,-0.451959 -0.796381,-0.619715 -1.064453,-0.726563 -0.134036,-0.05342 -0.222714,-0.09707 -0.251953,-0.11914 -0.02924,-0.02207 -0.01598,0.003 -0.02539,-0.03711 -0.01882,-0.08039 0.01096,-0.516267 0.365235,-1.378906 0.354276,-0.862638 0.639343,-1.192972 0.708984,-1.236328 0.03482,-0.02168 0.0088,-0.01307 0.04492,-0.0078 0.03613,0.0053 0.127608,0.03575 0.259765,0.09375 0.264313,0.116 0.702922,0.322734 1.261719,0.248047 0.558798,-0.07469 1.170082,-0.407799 1.894531,-1.138672 0.724448,-0.730872 1.056496,-1.348018 1.13086,-1.912109 0.07437,-0.56409 -0.131376,-1.006516 -0.246094,-1.273438 -0.05736,-0.133462 -0.08853,-0.229147 -0.09375,-0.265625 -0.0052,-0.03648 -0.0098,-0.0078 0.01172,-0.04297 0.04299,-0.07028 0.367948,-0.357774 1.222656,-0.714844 0.85471,-0.357069 1.287577,-0.386245 1.367188,-0.367188 z M 31,87.5 c -3.031644,0 -5.5,2.468356 -5.5,5.5 0,3.031644 2.468356,5.5 5.5,5.5 3.031644,0 5.5,-2.468356 5.5,-5.5 0,-3.031644 -2.468356,-5.5 -5.5,-5.5 z m 0,1 c 2.491204,0 4.5,2.008796 4.5,4.5 0,2.491204 -2.008796,4.5 -4.5,4.5 -2.491204,0 -4.5,-2.008796 -4.5,-4.5 0,-2.491204 2.008796,-4.5 4.5,-4.5 z"
       style="color:#000000;font-style:normal;font-variant:normal;font-weight:normal;font-stretch:normal;font-size:medium;line-height:normal;font-family:sans-serif;text-indent:0;text-align:start;text-decoration:none;text-decoration-line:none;text-decoration-style:solid;text-decoration-color:#000000;letter-spacing:normal;word-spacing:normal;text-transform:none;direction:ltr;block-progression:tb;writing-mode:lr-tb;baseline-shift:baseline;text-anchor:start;white-space:normal;clip-rule:nonzero;display:inline;overflow:visible;visibility:visible;opacity:1;isolation:auto;mix-blend-mode:normal;color-interpolation:sRGB;color-interpolation-filters:linearRGB;solid-color:#000000;solid-opacity:1;fill:#ffffff;fill-opacity:1;fill-rule:evenodd;stroke:none;stroke-width:0.99999994;stroke-linecap:butt;stroke-linejoin:miter;stroke-miterlimit:4;stroke-dasharray:none;stroke-dashoffset:0;stroke-opacity:1;color-rendering:auto;image-rendering:auto;shape-rendering:auto;text-rendering:auto;enable-background:accumulate"
       inkscape:connector-curvature="0" />
    <path
       inkscape:connector-curvature="0"
       id="ico_settings_background"
       d="m 27.844726,81.448659 c -0.303447,0.01352 -0.744519,0.135981 -1.410156,0.414062 -3.550064,1.483101 0.532104,1.574655 -2.185547,4.316406 -2.717651,2.741748 -2.805843,-1.379866 -4.277344,2.20313 -1.471501,3.582998 1.477862,0.734508 1.476562,4.613278 -0.0013,3.87876 -2.949515,1.02926 -1.480468,4.61328 1.469048,3.584035 1.559617,-0.53661 4.27539,2.20703 2.715774,2.743655 -1.365453,2.832795 2.183594,4.318365 3.549047,1.48558 0.728301,-1.49319 4.570313,-1.49219 3.84201,0.001 1.018294,2.97919 4.568359,1.49609 3.550063,-1.4831 -0.532104,-1.57659 2.185547,-4.318355 2.717651,-2.74175 2.805842,1.379865 4.277344,-2.20313 1.471501,-3.58299 -1.477863,-0.73452 -1.476563,-4.61328 0.0013,-3.87876 2.949516,-1.02926 1.480469,-4.613278 -1.469048,-3.584022 -1.559618,0.536618 -4.275391,-2.20703 -2.715773,-2.743648 1.365454,-2.832784 -2.183594,-4.318362 -3.549047,-1.485576 -0.728301,1.493487 -4.570312,1.492187 -3.121634,-0.0011 -1.843269,-1.966789 -3.158203,-1.908203 z m 3.154297,6.550778 a 5,5 0 0 1 5,4.999998 5,5 0 0 1 -5,5 5,5 0 0 1 -5,-5 5,5 0 0 1 5,-4.999998 z"
       style="opacity:1;fill:#ffffff;fill-opacity:0.17254902;fill-rule:evenodd;stroke:none;stroke-width:0.99999994;stroke-linejoin:miter;stroke-miterlimit:4;stroke-dasharray:none;stroke-opacity:1" />
  </g>
  <g
     id="ico_user">
    <g
       id="head_group">
      <path
         style="color:#000000;font-style:normal;font-variant:normal;font-weight:normal;font-stretch:normal;font-size:medium;line-height:normal;font-family:sans-serif;text-indent:0;text-align:start;text-decoration:none;text-decoration-line:none;text-decoration-style:solid;text-decoration-color:#000000;letter-spacing:normal;word-spacing:normal;text-transform:none;direction:ltr;block-progression:tb;writing-mode:lr-tb;baseline-shift:baseline;text-anchor:start;white-space:normal;clip-rule:nonzero;display:inline;overflow:visible;visibility:visible;opacity:1;isolation:auto;mix-blend-mode:normal;color-interpolation:sRGB;color-interpolation-filters:linearRGB;solid-color:#000000;solid-opacity:1;fill:#ffffff;fill-opacity:1;fill-rule:nonzero;stroke:none;stroke-width:1;stroke-linecap:round;stroke-linejoin:miter;stroke-miterlimit:4;stroke-dasharray:none;stroke-dashoffset:0;stroke-opacity:1;color-rendering:auto;image-rendering:auto;shape-rendering:auto;text-rendering:auto;enable-background:accumulate"
         d="m 30.966797,143 c -3.634205,0 -7.265625,2.76121 -7.265625,6.88867 0,2.03431 0.7454,3.6476 2.046875,4.70117 1.301475,1.05358 3.110635,1.54883 5.21875,1.54883 2.108116,0 3.917275,-0.49525 5.21875,-1.54883 1.301475,-1.05357 2.044922,-2.66686 2.044922,-4.70117 0,-4.12746 -3.629467,-6.88867 -7.263672,-6.88867 z m 0,1 c 3.130501,0 6.263672,2.34945 6.263672,5.88867 0,1.79902 -0.607656,3.06074 -1.673828,3.92383 -1.066173,0.86309 -2.639136,1.32617 -4.589844,1.32617 -1.950708,0 -3.523672,-0.46308 -4.589844,-1.32617 -1.066172,-0.86309 -1.675781,-2.12481 -1.675781,-3.92383 0,-3.53922 3.135124,-5.88867 6.265625,-5.88867 z"
         id="ico_user_head_line"
         inkscape:connector-curvature="0" />
      <path
         id="ico_user_head_background"
         d="m 30.966176,143.5 c -3.382353,0 -6.764706,2.55556 -6.764706,6.3889 0,3.83333 2.705883,5.75 6.764706,5.75 4.058824,0 6.764706,-1.91667 6.764706,-5.75 0,-3.83334 -3.382353,-6.3889 -6.764706,-6.3889 z"
         style="opacity:1;fill:#ffffff;fill-opacity:0.17254902;stroke:none;stroke-width:1;stroke-linecap:round;stroke-linejoin:miter;stroke-miterlimit:4;stroke-dasharray:none;stroke-opacity:1"
         inkscape:connector-curvature="0" />
    </g>
    <g
       id="body_group">
      <path
         style="color:#000000;font-style:normal;font-variant:normal;font-weight:normal;font-stretch:normal;font-size:medium;line-height:normal;font-family:sans-serif;text-indent:0;text-align:start;text-decoration:none;text-decoration-line:none;text-decoration-style:solid;text-decoration-color:#000000;letter-spacing:normal;word-spacing:normal;text-transform:none;direction:ltr;block-progression:tb;writing-mode:lr-tb;baseline-shift:baseline;text-anchor:start;white-space:normal;clip-rule:nonzero;display:inline;overflow:visible;visibility:visible;opacity:1;isolation:auto;mix-blend-mode:normal;color-interpolation:sRGB;color-interpolation-filters:linearRGB;solid-color:#000000;solid-opacity:1;fill:#ffffff;fill-opacity:1;fill-rule:nonzero;stroke:none;stroke-width:1;stroke-linecap:round;stroke-linejoin:miter;stroke-miterlimit:4;stroke-dasharray:none;stroke-dashoffset:0;stroke-opacity:1;color-rendering:auto;image-rendering:auto;shape-rendering:auto;text-rendering:auto;enable-background:accumulate"
         d="m 30.966797,157.69531 c -3.806447,0 -6.787517,0.97995 -8.832031,2.58203 C 20.090251,161.87942 19,164.11389 19,166.5 l 0,0.5 24,0 0,-0.5 c 0,-2.38863 -1.108899,-4.62358 -3.169922,-6.22461 -2.061023,-1.60103 -5.056835,-2.58008 -8.863281,-2.58008 z m 0,1 c 3.634729,0 6.404405,0.93546 8.25,2.36914 1.689828,1.31269 2.521299,3.05552 2.666015,4.93555 l -21.765624,0 c 0.142516,-1.88191 0.960808,-3.62383 2.634765,-4.93555 1.828279,-1.43264 4.580114,-2.36914 8.214844,-2.36914 z"
         id="ico_user_body_line"
         inkscape:connector-curvature="0" />
      <path
         id="ico_user_body_background"
         d="M 30.966176,158.19445 C 23.524999,158.19445 19.5,162.02778 19.5,166.5 l 23,0 c 0,-4.47222 -4.092648,-8.30555 -11.533824,-8.30555 z"
         style="opacity:1;fill:#ffffff;fill-opacity:0.17254902;stroke:none;stroke-width:1;stroke-linecap:round;stroke-linejoin:miter;stroke-miterlimit:4;stroke-dasharray:none;stroke-opacity:1"
         inkscape:connector-curvature="0" />
    </g>
  </g>
</svg>
