<?xml version="1.0" encoding="UTF-8" standalone="no"?>
<svg
   xmlns:dc="http://purl.org/dc/elements/1.1/"
   xmlns:cc="http://creativecommons.org/ns#"
   xmlns:rdf="http://www.w3.org/1999/02/22-rdf-syntax-ns#"
   xmlns:svg="http://www.w3.org/2000/svg"
   xmlns="http://www.w3.org/2000/svg"
   width="64"
   height="640"
   viewBox="0 0 64 640"
   style="shape-rendering:crispEdges">
  <metadata>
    <rdf:RDF>
      <cc:Work
         rdf:about="">
        <dc:format>image/svg+xml</dc:format>
        <dc:type
           rdf:resource="http://purl.org/dc/dcmitype/StillImage" />
        <dc:title />
        <dc:rights>
          <cc:Agent>
            <dc:title>Copyright © 2017 Maxim Rysevets. All rights reserved.</dc:title>
          </cc:Agent>
        </dc:rights>
        <dc:creator>
          <cc:Agent>
            <dc:title>Maxim Rysevets</dc:title>
          </cc:Agent>
        </dc:creator>
      </cc:Work>
    </rdf:RDF>
  </metadata>
  <path
     id="ico_empty"
     style="shape-rendering:auto;fill:white;fill-opacity:0.2;stroke:white"
     d="m 20.5,20.5 23,0 0,23 -23,0 z" />
  <path
     id="ico_settings"
     style="shape-rendering:auto;fill:white;fill-opacity:0.2;stroke:white"
     d="m 28.792555,84.447814 c -0.303447,0.01352 -0.744519,0.135981 -1.410156,0.414062 -3.550064,1.483101 0.532104,1.574655 -2.185547,4.316406 -2.717651,2.741748 -2.805843,-1.379866 -4.277344,2.20313 -1.471501,3.582998 1.477862,0.734508 1.476562,4.613278 -0.0013,3.87876 -2.949515,1.02926 -1.480468,4.61328 1.469048,3.58403 1.559617,-0.53661 4.27539,2.20703 2.715774,2.74365 -1.365453,2.83279 2.183594,4.31836 3.549047,1.48558 0.728301,-1.49319 4.570313,-1.49219 3.84201,10e-4 1.018294,2.97919 4.568359,1.49609 3.550063,-1.4831 -0.532104,-1.57659 2.185547,-4.31835 2.717651,-2.74175 2.805842,1.37986 4.277344,-2.20313 1.471501,-3.58299 -1.477863,-0.73452 -1.476563,-4.61328 0.0013,-3.87876 2.949516,-1.02926 1.480469,-4.613278 -1.469048,-3.584022 -1.559618,0.536618 -4.275391,-2.20703 -2.715773,-2.743648 1.365454,-2.832784 -2.183594,-4.318362 -3.549047,-1.485576 -0.728301,1.493487 -4.570312,1.492187 -3.121634,-0.0011 -1.843269,-1.966789 -3.158203,-1.908203 z m 3.154297,6.550778 a 5,5 0 0 1 5,5 5,5 0 0 1 -5,5 5,5 0 0 1 -5,-5 5,5 0 0 1 5,-5 z" />
  <path
     id="ico_develop"
     style="shape-rendering:auto;fill:white"
     d="m 23,148 c -1.65093,0 -3,1.34907 -3,3 0,1.65093 1.34907,3 3,3 1.65093,0 3,-1.34907 3,-3 0,-1.65093 -1.34907,-3 -3,-3 z M 29,148 l 0,6 1,0 0,-6 -1,0 z m 5,0 0,6 1,0 0,-6 -1,0 z m 7,0 c -1.65093,0 -3,1.34907 -3,3 0,1.65093 1.34907,3 3,3 1.65093,0 3,-1.34907 3,-3 0,-1.65093 -1.34907,-3 -3,-3 z m -18.000005,1 c 1.11049,0 2,0.88951 2,2 0,1.11049 -0.88951,2 -2,2 -1.11049,0 -2,-0.88951 -2,-2 0,-1.11049 0.88951,-2 2,-2 z m 18.000002,0 c 1.11049,0 2,0.88951 2,2 0,1.11049 -0.88951,2 -2,2 -1.11049,0 -2,-0.88951 -2,-2 0,-1.11049 0.88951,-2 2,-2 z m -18.000002,8 c -1.65093,0 -3,1.34907 -3,3 0,1.65093 1.34907,3 3,3 1.65093,0 3,-1.34907 3,-3 0,-1.65093 -1.34907,-3 -3,-3 z M 29,157 l 0,6 1,0 0,-6 -1,0 z m 5,0 0,6 1,0 0,-6 -1,0 z m 7,0 c -1.65093,0 -3,1.34907 -3,3 0,1.65093 1.34907,3 3,3 1.65093,0 3,-1.34907 3,-3 0,-1.65093 -1.34907,-3 -3,-3 z m -18.000005,1 c 1.11049,0 2,0.88951 2,2 0,1.11049 -0.88951,2 -2,2 -1.11049,0 -2,-0.88951 -2,-2 0,-1.11049 0.88951,-2 2,-2 z m 18.000002,0 c 1.11049,0 2,0.88951 2,2 0,1.11049 -0.88951,2 -2,2 -1.11049,0 -2,-0.88951 -2,-2 0,-1.11049 0.88951,-2 2,-2 z m -18.000002,8 c -1.65093,0 -3,1.34907 -3,3 0,1.65093 1.34907,3 3,3 1.65093,0 3,-1.34907 3,-3 0,-1.65093 -1.34907,-3 -3,-3 z m 6,0 0,6 1,0 0,-6 -1,0 z m 5,0 0,6 1,0 0,-6 -1,0 z m 7,0 c -1.65093,0 -3,1.34907 -3,3 0,1.65093 1.34907,3 3,3 1.65093,0 3,-1.34907 3,-3 0,-1.65093 -1.34907,-3 -3,-3 z m -18,1 c 1.11049,0 2,0.88951 2,2 0,1.11049 -0.88951,2 -2,2 -1.11049,0 -2,-0.88951 -2,-2 0,-1.11049 0.88951,-2 2,-2 z m 18.000002,0 c 1.11049,0 2,0.88951 2,2 0,1.11049 -0.88951,2 -2,2 -1.11049,0 -2,-0.88951 -2,-2 0,-1.11049 0.88951,-2 2,-2 z" />
</svg>