<?xml version="1.0" encoding="UTF-8" standalone="no"?>
<svg
   xmlns:dc="http://purl.org/dc/elements/1.1/"
   xmlns:cc="http://creativecommons.org/ns#"
   xmlns:rdf="http://www.w3.org/1999/02/22-rdf-syntax-ns#"
   xmlns:svg="http://www.w3.org/2000/svg"
   xmlns="http://www.w3.org/2000/svg"
   xmlns:sodipodi="http://sodipodi.sourceforge.net/DTD/sodipodi-0.dtd"
   xmlns:inkscape="http://www.inkscape.org/namespaces/inkscape"
   width="64"
   height="640"
   viewBox="0 0 64 640"
   id="svg2"
   version="1.1"
   style="shape-rendering:crispEdges">
  <sodipodi:namedview
     id="namedview8"
     pagecolor="#286edf"
     bordercolor="#000000"
     borderopacity="1"
     objecttolerance="10"
     gridtolerance="10"
     guidetolerance="10"
     showgrid="false"
     showguides="true"
     inkscape:pageopacity="1"
     inkscape:pageshadow="2"
     inkscape:guide-bbox="true"
     inkscape:snap-bbox="true"
     inkscape:bbox-paths="true"
     inkscape:bbox-nodes="true"
     inkscape:snap-bbox-edge-midpoints="true"
     inkscape:snap-bbox-midpoints="true"
     inkscape:object-nodes="true">
    <sodipodi:guide
       position="0,64"
       orientation="0,1"
       id="guide4222"
       inkscape:color="rgb(255,0,0)" />
    <sodipodi:guide
       position="0,128"
       orientation="0,1"
       id="guide4224"
       inkscape:color="rgb(255,0,0)" />
    <sodipodi:guide
       position="0,192"
       orientation="0,1"
       id="guide4226"
       inkscape:color="rgb(255,0,0)" />
    <sodipodi:guide
       position="0,256"
       orientation="0,1"
       id="guide4228"
       inkscape:color="rgb(255,0,0)" />
    <sodipodi:guide
       position="32,0"
       orientation="1,0"
       id="guide4232"
       inkscape:color="rgb(255,0,0)" />
    <sodipodi:guide
       position="0,320"
       orientation="0,1"
       id="guide4189"
       inkscape:color="rgb(255,0,0)" />
    <sodipodi:guide
       position="0,384"
       orientation="0,1"
       id="guide4193"
       inkscape:color="rgb(255,0,0)" />
    <sodipodi:guide
       position="0,448"
       orientation="0,1"
       id="guide4197"
       inkscape:color="rgb(255,0,0)" />
    <sodipodi:guide
       position="0,512"
       orientation="0,1"
       id="guide4201"
       inkscape:color="rgb(255,0,0)" />
    <sodipodi:guide
       position="0,576"
       orientation="0,1"
       id="guide4205"
       inkscape:color="rgb(255,0,0)" />
    <sodipodi:guide
       position="0,224"
       orientation="0,1"
       id="guide4236"
       inkscape:color="rgb(0,0,255)" />
    <sodipodi:guide
       position="0,160"
       orientation="0,1"
       id="guide4238"
       inkscape:color="rgb(0,0,255)" />
    <sodipodi:guide
       position="0,96"
       orientation="0,1"
       id="guide4243"
       inkscape:color="rgb(0,0,255)" />
    <sodipodi:guide
       position="0,32"
       orientation="0,1"
       id="guide4245"
       inkscape:color="rgb(0,0,255)" />
    <sodipodi:guide
       position="20,0"
       orientation="1,0"
       id="guide4330"
       inkscape:color="rgb(0,0,255)" />
    <sodipodi:guide
       position="44,0"
       orientation="1,0"
       id="guide4332"
       inkscape:color="rgb(0,0,255)" />
    <sodipodi:guide
       position="0,172"
       orientation="0,1"
       id="guide4336"
       inkscape:color="rgb(0,0,255)" />
    <sodipodi:guide
       position="0,148"
       orientation="0,1"
       id="guide4338"
       inkscape:color="rgb(0,0,255)" />
    <sodipodi:guide
       position="0,236"
       orientation="0,1"
       id="guide4340"
       inkscape:color="rgb(0,0,255)" />
    <sodipodi:guide
       position="0,212"
       orientation="0,1"
       id="guide4342"
       inkscape:color="rgb(0,0,255)" />
    <sodipodi:guide
       position="0,108"
       orientation="0,1"
       id="guide4344"
       inkscape:color="rgb(0,0,255)" />
    <sodipodi:guide
       position="0,84"
       orientation="0,1"
       id="guide4346"
       inkscape:color="rgb(0,0,255)" />
    <sodipodi:guide
       position="0,44"
       orientation="0,1"
       id="guide4348"
       inkscape:color="rgb(0,0,255)" />
    <sodipodi:guide
       position="0,20"
       orientation="0,1"
       id="guide4350"
       inkscape:color="rgb(0,0,255)" />
    <sodipodi:guide
       position="0,288"
       orientation="0,1"
       id="guide4187"
       inkscape:color="rgb(0,0,255)" />
    <sodipodi:guide
       position="0,352"
       orientation="0,1"
       id="guide4191"
       inkscape:color="rgb(0,0,255)" />
    <sodipodi:guide
       position="0,416"
       orientation="0,1"
       id="guide4195"
       inkscape:color="rgb(0,0,255)" />
    <sodipodi:guide
       position="0,480"
       orientation="0,1"
       id="guide4199"
       inkscape:color="rgb(0,0,255)" />
    <sodipodi:guide
       position="0,544"
       orientation="0,1"
       id="guide4203"
       inkscape:color="rgb(0,0,255)" />
    <sodipodi:guide
       position="0,608"
       orientation="0,1"
       id="guide4207"
       inkscape:color="rgb(0,0,255)" />
    <sodipodi:guide
       position="0,300"
       orientation="0,1"
       id="guide4211"
       inkscape:color="rgb(0,0,255)" />
    <sodipodi:guide
       position="0,276"
       orientation="0,1"
       id="guide4213"
       inkscape:color="rgb(0,0,255)" />
    <sodipodi:guide
       position="0,364"
       orientation="0,1"
       id="guide4215"
       inkscape:color="rgb(0,0,255)" />
    <sodipodi:guide
       position="0,340"
       orientation="0,1"
       id="guide4217"
       inkscape:color="rgb(0,0,255)" />
    <sodipodi:guide
       position="0,428"
       orientation="0,1"
       id="guide4219"
       inkscape:color="rgb(0,0,255)" />
    <sodipodi:guide
       position="0,404"
       orientation="0,1"
       id="guide4221"
       inkscape:color="rgb(0,0,255)" />
    <sodipodi:guide
       position="0,492"
       orientation="0,1"
       id="guide4223"
       inkscape:color="rgb(0,0,255)" />
    <sodipodi:guide
       position="0,468"
       orientation="0,1"
       id="guide4225"
       inkscape:color="rgb(0,0,255)" />
    <sodipodi:guide
       position="0,532"
       orientation="0,1"
       id="guide4227"
       inkscape:color="rgb(0,0,255)" />
    <sodipodi:guide
       position="0,556"
       orientation="0,1"
       id="guide4229"
       inkscape:color="rgb(0,0,255)" />
    <sodipodi:guide
       position="0,596"
       orientation="0,1"
       id="guide4231"
       inkscape:color="rgb(0,0,255)" />
    <sodipodi:guide
       position="0,620"
       orientation="0,1"
       id="guide4233"
       inkscape:color="rgb(0,0,255)" />
  </sodipodi:namedview>
  <defs
     id="defs4" />
  <metadata
     id="metadata7">
    <rdf:RDF>
      <cc:Work
         rdf:about="">
        <dc:format>image/svg+xml</dc:format>
        <dc:type
           rdf:resource="http://purl.org/dc/dcmitype/StillImage" />
        <dc:title />
        <dc:rights>
          <cc:Agent>
            <dc:title>Copyright © 2017 Maxim Rysevets. All rights reserved.</dc:title>
          </cc:Agent>
        </dc:rights>
        <dc:creator>
          <cc:Agent>
            <dc:title>Maxim Rysevets</dc:title>
          </cc:Agent>
        </dc:creator>
      </cc:Work>
    </rdf:RDF>
  </metadata>
  <g
     id="ico_home"
     transform="translate(1,1)">
    <path
       id="ico_home_line"
       style="fill:#ffffff;shape-rendering:auto"
       d="m 19,19 0,0.5 0,23.5 24,0 0,-24 -24,0 z m 1,1 22,0 0,22 -22,0 0,-22 z" />
    <path
       id="ico_home_background"
       style="fill:#ffffff;fill-opacity:0.2;shape-rendering:auto"
       d="m 19.5,19.5 23,0 0,23 -23,0 z" />
  </g>
  <path
     id="ico_settings"
     style="fill:#ffffff;fill-opacity:0.2;shape-rendering:auto;stroke:#ffffff"
     d="m 28.792555,84.447814 c -0.303447,0.01352 -0.744519,0.135981 -1.410156,0.414062 -3.550064,1.483101 0.532104,1.574655 -2.185547,4.316406 -2.717651,2.741748 -2.805843,-1.379866 -4.277344,2.20313 -1.471501,3.582998 1.477862,0.734508 1.476562,4.613278 -0.0013,3.87876 -2.949515,1.02926 -1.480468,4.61328 1.469048,3.58403 1.559617,-0.53661 4.27539,2.20703 2.715774,2.74365 -1.365453,2.83279 2.183594,4.31836 3.549047,1.48558 0.728301,-1.49319 4.570313,-1.49219 3.84201,10e-4 1.018294,2.97919 4.568359,1.49609 3.550063,-1.4831 -0.532104,-1.57659 2.185547,-4.31835 2.717651,-2.74175 2.805842,1.37986 4.277344,-2.20313 1.471501,-3.58299 -1.477863,-0.73452 -1.476563,-4.61328 0.0013,-3.87876 2.949516,-1.02926 1.480469,-4.613278 -1.469048,-3.584022 -1.559618,0.536618 -4.275391,-2.20703 -2.715773,-2.743648 1.365454,-2.832784 -2.183594,-4.318362 -3.549047,-1.485576 -0.728301,1.493487 -4.570312,1.492187 -3.121634,-0.0011 -1.843269,-1.966789 -3.158203,-1.908203 z m 3.154297,6.550778 a 5,5 0 0 1 5,5 5,5 0 0 1 -5,4.999998 5,5 0 0 1 -5,-4.999998 5,5 0 0 1 5,-5 z" />
  <path
     id="ico_develop"
     style="fill:#ffffff;shape-rendering:auto"
     d="m 23,148 c -1.65093,0 -3,1.34907 -3,3 0,1.65093 1.34907,3 3,3 1.65093,0 3,-1.34907 3,-3 0,-1.65093 -1.34907,-3 -3,-3 z M 29,148 l 0,6 1,0 0,-6 -1,0 z m 5,0 0,6 1,0 0,-6 -1,0 z m 7,0 c -1.65093,0 -3,1.34907 -3,3 0,1.65093 1.34907,3 3,3 1.65093,0 3,-1.34907 3,-3 0,-1.65093 -1.34907,-3 -3,-3 z m -18.000005,1 c 1.11049,0 2,0.88951 2,2 0,1.11049 -0.88951,2 -2,2 -1.11049,0 -2,-0.88951 -2,-2 0,-1.11049 0.88951,-2 2,-2 z m 18.000002,0 c 1.11049,0 2,0.88951 2,2 0,1.11049 -0.88951,2 -2,2 -1.11049,0 -2,-0.88951 -2,-2 0,-1.11049 0.88951,-2 2,-2 z m -18.000002,8 c -1.65093,0 -3,1.34907 -3,3 0,1.65093 1.34907,3 3,3 1.65093,0 3,-1.34907 3,-3 0,-1.65093 -1.34907,-3 -3,-3 z M 29,157 l 0,6 1,0 0,-6 -1,0 z m 5,0 0,6 1,0 0,-6 -1,0 z m 7,0 c -1.65093,0 -3,1.34907 -3,3 0,1.65093 1.34907,3 3,3 1.65093,0 3,-1.34907 3,-3 0,-1.65093 -1.34907,-3 -3,-3 z m -18.000005,1 c 1.11049,0 2,0.88951 2,2 0,1.11049 -0.88951,2 -2,2 -1.11049,0 -2,-0.88951 -2,-2 0,-1.11049 0.88951,-2 2,-2 z m 18.000002,0 c 1.11049,0 2,0.88951 2,2 0,1.11049 -0.88951,2 -2,2 -1.11049,0 -2,-0.88951 -2,-2 0,-1.11049 0.88951,-2 2,-2 z m -18.000002,8 c -1.65093,0 -3,1.34907 -3,3 0,1.65093 1.34907,3 3,3 1.65093,0 3,-1.34907 3,-3 0,-1.65093 -1.34907,-3 -3,-3 z m 6,0 0,6 1,0 0,-6 -1,0 z m 5,0 0,6 1,0 0,-6 -1,0 z m 7,0 c -1.65093,0 -3,1.34907 -3,3 0,1.65093 1.34907,3 3,3 1.65093,0 3,-1.34907 3,-3 0,-1.65093 -1.34907,-3 -3,-3 z m -18,1 c 1.11049,0 2,0.88951 2,2 0,1.11049 -0.88951,2 -2,2 -1.11049,0 -2,-0.88951 -2,-2 0,-1.11049 0.88951,-2 2,-2 z m 18.000002,0 c 1.11049,0 2,0.88951 2,2 0,1.11049 -0.88951,2 -2,2 -1.11049,0 -2,-0.88951 -2,-2 0,-1.11049 0.88951,-2 2,-2 z" />
  <g
     id="ico_user_anonymous"
     transform="translate(1,69)">
    <g
       id="ico_user_anonymous_head_group">
      <path
         id="ico_user_anonymous_head_line"
         style="fill:#ffffff;shape-rendering:auto"
         d="m 30.966797,143 c -3.634205,0 -7.265625,2.76121 -7.265625,6.88867 0,2.03431 0.7454,3.6476 2.046875,4.70117 1.301475,1.05358 3.110635,1.54883 5.21875,1.54883 2.108116,0 3.917275,-0.49525 5.21875,-1.54883 1.301475,-1.05357 2.044922,-2.66686 2.044922,-4.70117 0,-4.12746 -3.629467,-6.88867 -7.263672,-6.88867 z m 0,1 c 3.130501,0 6.263672,2.34945 6.263672,5.88867 0,1.79902 -0.607656,3.06074 -1.673828,3.92383 -1.066173,0.86309 -2.639136,1.32617 -4.589844,1.32617 -1.950708,0 -3.523672,-0.46308 -4.589844,-1.32617 -1.066172,-0.86309 -1.675781,-2.12481 -1.675781,-3.92383 0,-3.53922 3.135124,-5.88867 6.265625,-5.88867 z" />
      <path
         id="ico_user_anonymous_head_background"
         style="fill:#ffffff;fill-opacity:0.2;shape-rendering:auto"
         d="m 30.966176,143.5 c -3.382353,0 -6.764706,2.55556 -6.764706,6.3889 0,3.83333 2.705883,5.75 6.764706,5.75 4.058824,0 6.764706,-1.91667 6.764706,-5.75 0,-3.83334 -3.382353,-6.3889 -6.764706,-6.3889 z" />
    </g>
    <g
       id="ico_user_anonymous_body_group">
      <path
         id="ico_user_anonymous_body_line"
         style="fill:#ffffff;shape-rendering:auto"
         d="m 30.966797,157.69531 c -3.806447,0 -6.787517,0.97995 -8.832031,2.58203 C 20.090251,161.87942 19,164.11389 19,166.5 l 0,0.5 24,0 0,-0.5 c 0,-2.38863 -1.108899,-4.62358 -3.169922,-6.22461 -2.061023,-1.60103 -5.056835,-2.58008 -8.863281,-2.58008 z m 0,1 c 3.634729,0 6.404405,0.93546 8.25,2.36914 1.689828,1.31269 2.521299,3.05552 2.666015,4.93555 l -21.765624,0 c 0.142516,-1.88191 0.960808,-3.62383 2.634765,-4.93555 1.828279,-1.43264 4.580114,-2.36914 8.214844,-2.36914 z" />
      <path
         id="ico_user_anonymous_body_background"
         style="fill:#ffffff;fill-opacity:0.2;shape-rendering:auto"
         d="M 30.966176,158.19445 C 23.525,158.19445 19.5,162.02778 19.5,166.5 l 23,0 c 0,-4.47222 -4.092648,-8.30555 -11.533824,-8.30555 z" />
    </g>
  </g>
  <g
     id="ico_user_n"
     transform="translate(1,133)">
    <g
       id="ico_user_n_head_group">
      <path
         id="ico_user_n_head_line"
         style="fill:#ffffff;shape-rendering:auto"
         d="m 30.966797,143 c -3.634205,0 -7.265625,2.76121 -7.265625,6.88867 0,2.03431 0.7454,3.6476 2.046875,4.70117 1.301475,1.05358 3.110635,1.54883 5.21875,1.54883 2.108116,0 3.917275,-0.49525 5.21875,-1.54883 1.301475,-1.05357 2.044922,-2.66686 2.044922,-4.70117 0,-4.12746 -3.629467,-6.88867 -7.263672,-6.88867 z m 0,1 c 3.130501,0 6.263672,2.34945 6.263672,5.88867 0,1.79902 -0.607656,3.06074 -1.673828,3.92383 -1.066173,0.86309 -2.639136,1.32617 -4.589844,1.32617 -1.950708,0 -3.523672,-0.46308 -4.589844,-1.32617 -1.066172,-0.86309 -1.675781,-2.12481 -1.675781,-3.92383 0,-3.53922 3.135124,-5.88867 6.265625,-5.88867 z" />
      <path
         id="ico_user_n_head_background"
         style="fill:#ffffff;fill-opacity:0.2;shape-rendering:auto"
         d="m 30.966176,143.5 c -3.382353,0 -6.764706,2.55556 -6.764706,6.3889 0,3.83333 2.705883,5.75 6.764706,5.75 4.058824,0 6.764706,-1.91667 6.764706,-5.75 0,-3.83334 -3.382353,-6.3889 -6.764706,-6.3889 z" />
    </g>
    <g
       id="ico_user_n_body_group">
      <path
         id="ico_user_n_body_line"
         style="fill:#ffffff;shape-rendering:auto"
         d="m 30.966797,157.69531 c -3.806447,0 -6.787517,0.97995 -8.832031,2.58203 C 20.090251,161.87942 19,164.11389 19,166.5 l 0,0.5 24,0 0,-0.5 c 0,-2.38863 -1.108899,-4.62358 -3.169922,-6.22461 -2.061023,-1.60103 -5.056835,-2.58008 -8.863281,-2.58008 z m 0,1 c 3.634729,0 6.404405,0.93546 8.25,2.36914 1.689828,1.31269 2.521299,3.05552 2.666015,4.93555 l -21.765624,0 c 0.142516,-1.88191 0.960808,-3.62383 2.634765,-4.93555 1.828279,-1.43264 4.580114,-2.36914 8.214844,-2.36914 z" />
      <path
         id="ico_user_n_body_background"
         style="fill:#ffffff;fill-opacity:0.2;shape-rendering:auto"
         d="M 30.966176,158.19445 C 23.525,158.19445 19.5,162.02778 19.5,166.5 l 23,0 c 0,-4.47222 -4.092648,-8.30555 -11.533824,-8.30555 z" />
    </g>
  </g>
</svg>
