<?xml version="1.0" encoding="UTF-8"?>
<svg
   xmlns="http://www.w3.org/2000/svg"
   xmlns:rdf="http://www.w3.org/1999/02/22-rdf-syntax-ns#"
   xmlns:dc="http://purl.org/dc/elements/1.1/"
   xmlns:cc="http://creativecommons.org/ns#"
   width="200"
   height="70"
   viewBox="0 0 200 70"
   style="shape-rendering: auto">

  <metadata>
    <rdf:RDF>
      <cc:Work>
        <dc:format>image/svg+xml</dc:format>
        <dc:type rdf:resource="http://purl.org/dc/dcmitype/StillImage"/>
        <dc:rights><cc:Agent><dc:title>Copyright © 2017—2019 Maxim Rysevets. All rights reserved.</dc:title></cc:Agent></dc:rights>
        <dc:creator><cc:Agent><dc:title>Maxim Rysevets</dc:title></cc:Agent></dc:creator>
      </cc:Work>
    </rdf:RDF>
  </metadata>

  <g id="logo_effcore">
    <rect id="eff-bg" x="0" y="0" width="200" height="70" style="fill: white"/>
    <path style="fill: #333"    d="M 23.839844 20.300781 C 14.299844 20.300781 7.2792969 27.139688 7.2792969 36.679688 C 7.2792969 46.219687 14.240469 53.119141 24.980469 53.119141 C 30.500469 53.119141 35.000859 51.320391 37.880859 47.900391 L 33.859375 43.279297 C 31.579375 45.619297 28.760156 46.759766 25.160156 46.759766 C 19.580156 46.759766 15.679297 43.760078 14.779297 39.080078 L 39.919922 39.080078 C 39.979922 38.360078 40.039062 37.459375 40.039062 36.859375 C 40.039062 26.839375 33.199844 20.300781 23.839844 20.300781 z M 94.732422 20.900391 C 85.312422 20.900391 78.472656 27.499922 78.472656 36.919922 C 78.472656 46.339922 85.312422 53 94.732422 53 C 100.07242 53 104.5718 50.839766 107.0918 46.759766 L 103.91211 44.599609 C 101.75211 47.779609 98.392422 49.220703 94.732422 49.220703 C 87.832422 49.220703 82.792969 44.359922 82.792969 36.919922 C 82.792969 29.539922 87.832422 24.619141 94.732422 24.619141 C 98.392422 24.619141 101.75211 26.120781 103.91211 29.300781 L 107.0918 27.140625 C 104.5718 23.000625 100.07242 20.900391 94.732422 20.900391 z M 124.11719 20.900391 C 114.87719 20.900391 108.03711 27.559922 108.03711 36.919922 C 108.03711 46.279922 114.87719 53 124.11719 53 C 133.35719 53 140.13672 46.279922 140.13672 36.919922 C 140.13672 27.559922 133.35719 20.900391 124.11719 20.900391 z M 161.13281 20.900391 C 155.31281 20.900391 151.29445 23.120312 149.31445 27.320312 L 149.31445 21.140625 L 145.23438 21.140625 L 145.23438 52.699219 L 149.49414 52.699219 L 149.49414 36.619141 C 149.49414 29.179141 153.51328 24.980469 160.11328 24.980469 C 160.41328 24.980469 160.77281 25.039063 161.13281 25.039062 L 161.13281 20.900391 z M 177.07617 20.900391 C 168.19617 20.900391 161.65625 27.559922 161.65625 36.919922 C 161.65625 46.279922 168.3768 53 178.2168 53 C 183.1968 53 187.57648 51.199844 190.39648 47.839844 L 187.99609 45.080078 C 185.59609 47.840078 182.17594 49.220703 178.33594 49.220703 C 171.43594 49.220703 166.39602 44.840234 165.91602 38.240234 L 192.31641 38.240234 C 192.31641 37.760234 192.37695 37.279922 192.37695 36.919922 C 192.37695 27.439922 185.95617 20.900391 177.07617 20.900391 z M 177.07617 24.560547 C 183.25617 24.560547 187.75688 28.880547 188.29688 35.060547 L 165.91602 35.060547 C 166.45602 28.880547 170.95617 24.560547 177.07617 24.560547 z M 124.11719 24.619141 C 130.83719 24.619141 135.81641 29.539922 135.81641 36.919922 C 135.81641 44.299922 130.83719 49.220703 124.11719 49.220703 C 117.39719 49.220703 112.35742 44.299922 112.35742 36.919922 C 112.35742 29.539922 117.39719 24.619141 124.11719 24.619141 z M 23.839844 26.300781 C 28.759844 26.300781 32.300391 29.479609 32.900391 34.099609 L 14.720703 34.099609 C 15.440703 29.419609 18.979844 26.300781 23.839844 26.300781 z "/>
    <path style="fill: #00c60c" d="M 57.066406 6.140625 C 52.786406 6.140625 49.584844 7.2991406 47.464844 9.6191406 C 45.344844 11.899141 44.285156 15.059609 44.285156 19.099609 L 44.285156 51.740234 C 44.285156 53.700234 43.945625 55.159141 43.265625 56.119141 C 42.585625 57.119141 41.406562 57.619141 39.726562 57.619141 C 38.486562 57.619141 37.424922 57.479219 36.544922 57.199219 L 35.585938 63.140625 C 36.305937 63.420625 37.145469 63.599688 38.105469 63.679688 C 39.025469 63.799687 39.745625 63.859375 40.265625 63.859375 C 43.905625 63.859375 46.685469 62.879922 48.605469 60.919922 C 50.565469 58.959922 51.544922 55.939375 51.544922 51.859375 L 51.544922 27.380859 L 62.308594 27.380859 L 62.308594 51.740234 C 62.308594 53.700234 61.969063 55.159141 61.289062 56.119141 C 60.609063 57.119141 59.43 57.619141 57.75 57.619141 C 56.51 57.619141 55.448359 57.479219 54.568359 57.199219 L 53.609375 63.140625 C 54.329375 63.420625 55.168906 63.599688 56.128906 63.679688 C 57.048906 63.799687 57.769062 63.859375 58.289062 63.859375 C 61.929063 63.859375 64.708906 62.879922 66.628906 60.919922 C 68.588906 58.959922 69.568359 55.939375 69.568359 51.859375 L 69.568359 27.380859 L 80.96875 27.380859 L 80.96875 21.320312 L 69.568359 21.320312 L 69.568359 19.220703 C 69.568359 18.220703 69.669141 17.300937 69.869141 16.460938 C 70.069141 15.580938 70.408672 14.840234 70.888672 14.240234 C 71.368672 13.640234 72.008594 13.179375 72.808594 12.859375 C 73.608594 12.499375 74.59 12.320312 75.75 12.320312 C 76.79 12.320312 77.748906 12.419141 78.628906 12.619141 C 79.548906 12.819141 80.349297 13.080391 81.029297 13.400391 L 82.408203 7.4003906 C 81.768203 7.1603906 80.809297 6.8991406 79.529297 6.6191406 C 78.249297 6.2991406 76.769844 6.140625 75.089844 6.140625 C 70.809844 6.140625 67.608281 7.2991406 65.488281 9.6191406 C 63.368281 11.899141 62.308594 15.059609 62.308594 19.099609 L 62.308594 21.320312 L 51.544922 21.320312 L 51.544922 19.220703 C 51.544922 18.220703 51.645703 17.300937 51.845703 16.460938 C 52.045703 15.580938 52.385234 14.840234 52.865234 14.240234 C 53.345234 13.640234 53.985156 13.179375 54.785156 12.859375 C 55.585156 12.499375 56.566562 12.320312 57.726562 12.320312 C 58.766562 12.320312 59.725469 12.419141 60.605469 12.619141 C 61.525469 12.819141 62.325859 13.080391 63.005859 13.400391 L 64.384766 7.4003906 C 63.744766 7.1603906 62.785859 6.8991406 61.505859 6.6191406 C 60.225859 6.2991406 58.746406 6.140625 57.066406 6.140625 z "/>
  </g>

</svg>