<?xml version="1.0" encoding="UTF-8"?>
<svg
   xmlns="http://www.w3.org/2000/svg"
   xmlns:rdf="http://www.w3.org/1999/02/22-rdf-syntax-ns#"
   xmlns:dc="http://purl.org/dc/elements/1.1/"
   xmlns:cc="http://creativecommons.org/ns#"
   width="186"
   height="58"
   viewBox="0 0 186 58"
   style="shape-rendering: auto">

  <metadata>
    <rdf:RDF>
      <cc:Work>
        <dc:format>image/svg+xml</dc:format>
        <dc:type rdf:resource="http://purl.org/dc/dcmitype/StillImage" />
        <dc:rights><cc:Agent><dc:title>Copyright © 2017—2019 Maxim Rysevets. All rights reserved.</dc:title></cc:Agent></dc:rights>
        <dc:creator><cc:Agent><dc:title>Maxim Rysevets</dc:title></cc:Agent></dc:creator>
      </cc:Work>
    </rdf:RDF>
  </metadata>

  <g>
    <path style="fill: #333"    d="m 185.57688,30.920001 c 0,-9.48 -6.42,-16.02 -15.3,-16.02 -8.88,0 -15.42,6.66 -15.42,16.02 0,9.36 6.72,16.08 16.56,16.08 4.98,0 9.36,-1.8 12.18,-5.16 l -2.4,-2.76 c -2.4,2.76 -5.82,4.14 -9.66,4.14 -6.9,0 -11.94,-4.38 -12.42,-10.98 h 26.4 c 0,-0.48 0.06,-0.96 0.06,-1.32 z m -15.3,-12.36 c 6.18,0 10.68,4.32 11.22,10.5 h -22.38 c 0.54,-6.18 5.04,-10.5 11.16,-10.5 z m -27.76313,2.76 v -6.18 h -4.08 v 31.56 h 4.26 v -16.08 c 0,-7.44 4.02,-11.64 10.62,-11.64 0.3,0 0.66,0.06 1.02,0.06 v -4.14 c -5.82,0 -9.84,2.22 -11.82,6.42 z m -25.19718,25.68 c 9.24,0 16.02,-6.72 16.02,-16.08 0,-9.36 -6.78,-16.02 -16.02,-16.02 -9.24,0 -16.08,6.66 -16.08,16.02 0,9.36 6.84,16.08 16.08,16.08 z m 0,-3.78 c -6.72,0 -11.76,-4.92 -11.76,-12.3 0,-7.38 5.04,-12.3 11.76,-12.3 6.72,0 11.7,4.92 11.7,12.3 0,7.38 -4.98,12.3 -11.7,12.3 z m -29.384068,3.78 c 5.34,0 9.84,-2.16 12.359998,-6.24 l -3.179998,-2.16 c -2.16,3.18 -5.52,4.62 -9.18,4.62 -6.9,0 -11.94,-4.86 -11.94,-12.3 0,-7.38 5.04,-12.3 11.94,-12.3 3.66,0 7.02,1.5 9.18,4.68 l 3.179998,-2.16 c -2.519998,-4.14 -7.019998,-6.24 -12.359998,-6.24 -9.42,0 -16.26,6.6 -16.26,16.02 0,9.42 6.84,16.08 16.26,16.08 z M 33.24,30.860001 c 0,-10.02 -6.84,-16.56 -16.2,-16.56 -9.54,0 -16.55999995,6.84 -16.55999995,16.38 0,9.54 6.95999995,16.44 17.69999995,16.44 5.52,0 10.02,-1.8 12.9,-5.22 l -4.02,-4.62 c -2.28,2.34 -5.1,3.48 -8.7,3.48 -5.58,0 -9.48,-3 -10.38,-7.68 h 25.14 c 0.06,-0.72 0.12,-1.62 0.12,-2.22 z m -16.2,-10.56 c 4.92,0 8.46,3.18 9.06,7.8 H 7.92 c 0.72,-4.68 4.26,-7.8 9.12,-7.8 z" />
    <path style="fill: #00c60c" d="M 50.265625 0.140625 C 45.985625 0.140625 42.786016 1.2991406 40.666016 3.6191406 C 38.546016 5.8991406 37.486328 9.0596092 37.486328 13.099609 L 37.486328 45.740234 C 37.486328 47.700234 37.144844 49.159141 36.464844 50.119141 C 35.784844 51.119141 34.605781 51.619141 32.925781 51.619141 C 31.685781 51.619141 30.626094 51.479219 29.746094 51.199219 L 28.785156 57.140625 C 29.505156 57.420625 30.344687 57.599688 31.304688 57.679688 C 32.224688 57.799687 32.944844 57.859375 33.464844 57.859375 C 37.104844 57.859375 39.884687 56.879922 41.804688 54.919922 C 43.764687 52.959922 44.746094 49.939375 44.746094 45.859375 L 44.746094 21.380859 L 55.509766 21.380859 L 55.509766 45.740234 C 55.509766 47.700234 55.168281 49.159141 54.488281 50.119141 C 53.808281 51.119141 52.629219 51.619141 50.949219 51.619141 C 49.709219 51.619141 48.649531 51.479219 47.769531 51.199219 L 46.808594 57.140625 C 47.528594 57.420625 48.368125 57.599688 49.328125 57.679688 C 50.248125 57.799687 50.968281 57.859375 51.488281 57.859375 C 55.128281 57.859375 57.908125 56.879922 59.828125 54.919922 C 61.788125 52.959922 62.769531 49.939375 62.769531 45.859375 L 62.769531 21.380859 L 74.169922 21.380859 L 74.169922 15.320312 L 62.769531 15.320312 L 62.769531 13.220703 C 62.769531 12.220703 62.868359 11.300937 63.068359 10.460938 C 63.268359 9.5809374 63.609844 8.8402344 64.089844 8.2402344 C 64.569844 7.6402344 65.209766 7.179375 66.009766 6.859375 C 66.809766 6.499375 67.789219 6.3203125 68.949219 6.3203125 C 69.989219 6.3203125 70.948125 6.4191406 71.828125 6.6191406 C 72.748125 6.8191406 73.548516 7.0803906 74.228516 7.4003906 L 75.609375 1.4003906 C 74.969375 1.1603906 74.008516 0.89914065 72.728516 0.61914062 C 71.448516 0.29914062 69.969062 0.140625 68.289062 0.140625 C 64.009063 0.140625 60.809453 1.2991406 58.689453 3.6191406 C 56.569453 5.8991406 55.509766 9.0596092 55.509766 13.099609 L 55.509766 15.320312 L 44.746094 15.320312 L 44.746094 13.220703 C 44.746094 12.220703 44.844922 11.300937 45.044922 10.460938 C 45.244922 9.5809374 45.586406 8.8402344 46.066406 8.2402344 C 46.546406 7.6402344 47.186328 7.179375 47.986328 6.859375 C 48.786328 6.499375 49.765781 6.3203125 50.925781 6.3203125 C 51.965781 6.3203125 52.924687 6.4191406 53.804688 6.6191406 C 54.724688 6.8191406 55.525078 7.0803906 56.205078 7.4003906 L 57.585938 1.4003906 C 56.945938 1.1603906 55.985078 0.89914065 54.705078 0.61914062 C 53.425078 0.29914062 51.945625 0.140625 50.265625 0.140625 z" />
  </g>

</svg>