<?xml version="1.0" encoding="utf-8"?>
<svg
    xmlns="http://www.w3.org/2000/svg"
    xmlns:cc="http://creativecommons.org/ns#"
    xmlns:dc="http://purl.org/dc/elements/1.1/"
    xmlns:rdf="http://www.w3.org/1999/02/22-rdf-syntax-ns#"
    xmlns:xlink="http://www.w3.org/1999/xlink"
    width="220"
    height="80"
    viewBox="0 0 220 80"
    style="shape-rendering: auto">

    <metadata>
        <rdf:RDF>
            <cc:Work>
                <dc:format>image/svg+xml</dc:format>
                <dc:type rdf:resource="http://purl.org/dc/dcmitype/StillImage"/>
                <dc:rights><cc:Agent><dc:title>Copyright © 2017—2020 Maxim Rysevets. All rights reserved.</dc:title></cc:Agent></dc:rights>
                <dc:creator><cc:Agent><dc:title>Maxim Rysevets</dc:title></cc:Agent></dc:creator>
            </cc:Work>
        </rdf:RDF>
    </metadata>

    <defs>
        <linearGradient id="color-main">
            <stop offset="0" stop-color="black"/>
        </linearGradient>

        <linearGradient id="color-wave-b" gradientTransform="rotate(90)">
            <stop offset="0" stop-color="#41c3e6"/>
            <stop offset="100%" stop-color="#0bdcef"/>
        </linearGradient>

        <linearGradient id="color-wave-f" gradientTransform="rotate(90)">
            <stop offset="0" stop-color="#0cacd4"/>
            <stop offset="100%" stop-color="#00b0c7"/>
        </linearGradient>

        <mask id="porthole-border">
            <path style="fill: white" d="M 15.029 0 C 6.393 0 0 6.226 0 14.973 C 0 23.72 6.393 30 15.029 30 C 23.664 30 30 23.72 30 14.973 C 30 6.226 23.664 0 15.029 0 Z"/>
        </mask>
    </defs>

    <g id="logo_system" transform="matrix(1, 0, 0, 1, 20.236626, 15)">

        <g id="waves" transform="matrix(1, 0, 0, 1, 97.227997, 14.189)" mask="url(#porthole-border)">
            <path id="wave-b" style="fill: url(#color-wave-b)"              d="M 40 30 L -10 30 L -10 15 C -10 15 -4.96712 20 0 20 C 3.33333 20 6.73333 18.2 10 16 C 12.7185 14.1692 16.109 12.1251 20 11 C 22.7667 10.2 26.5525 10.2157 30 11 C 37.0333 12.6 40 15 40 15 L 40 30 Z"/>
            <path id="wave-f" style="fill: url(#color-wave-f); opacity: .7" d="M 40 30 L -10 30 L -10 15 C -10 15 -5.82617 19.291 0 21 C 3.75 22.1 6.5 22 10 21 C 13.8696 19.8944 17.1 16.975 20 14 C 22.9 11.025 25.5 9 30 9 C 36.0208 9 40 15 40 15 L 40 30 Z"/>
        </g>

        <path id="text" style="fill: url(#color-main)"
            d="M 47.84 0 C 40.4 0 36.381 4.379 36.381 11.099 L 36.381 13.138 L 31.1 13.138 L 31.1 19.138 L 36.381 19.138 L 36.381 44.939 L 43.881 44.939 L 43.881 19.138 L 52.521
               19.138 L 52.521 44.939 L 60.021 44.939 L 60.021 19.138 L 66.7 19.138 L 66.7 13.138 L 59.781 13.138 L 59.781 11.218 C 59.781 7.798 61.402 6.058 64.521 6.058 C 65.535
               6.058 66.496 6.29 67.359 6.664 C 68.047 4.693 68.77 3.246 70.457 1.683 C 68.496 0.536 65.861 0.005 63.98 0 C 56.541 0 52.521 4.379 52.521 11.099 L 52.521 13.138 L
               43.641 13.138 L 43.641 11.218 C 43.641 7.798 45.261 6.058 48.381 6.058 C 49.395 6.058 50.356 6.29 51.219 6.664 C 51.907 4.693 52.63 3.246 54.316 1.683 C 52.355 0.536
               49.72 0.005 47.84 0 Z M 16.561 12.539 C 7.021 12.539 0 19.38 0 28.919 C 0 38.459 6.961 45.359 17.701 45.359 C 23.221 45.359 27.72 43.558 30.6 40.138 L 26.58 35.519 C
               24.3 37.859 21.481 39 17.881 39 C 12.301 39 8.4 36 7.5 31.32 L 32.641 31.32 C 33.73 18.834 25.476 12.509 16.561 12.539 Z M 81.74 13.138 C 72.32 13.138 65.48 19.74
               65.48 29.16 C 65.48 38.58 72.32 45.24 81.74 45.24 C 87.08 45.24 91.58 43.08 94.1 39 L 90.92 36.839 C 88.76 40.019 85.4 41.459 81.74 41.459 C 74.84 41.459 69.801 36.6
               69.801 29.16 C 69.801 21.78 74.84 16.859 81.74 16.859 C 85.4 16.859 88.76 18.359 90.92 21.539 L 94.1 19.378 C 91.58 15.238 87.08 13.138 81.74 13.138 Z M 112.258
               13.138 C 103.018 13.138 96.178 19.8 96.178 29.16 C 96.178 38.52 103.018 45.24 112.258 45.24 C 121.498 45.24 128.277 38.52 128.277 29.16 C 128.277 19.8 121.498 13.138
               112.258 13.138 Z M 148.221 13.138 C 142.401 13.138 138.38 15.358 136.4 19.558 L 136.4 13.378 L 132.32 13.378 L 132.32 44.939 L 136.58 44.939 L 136.58 28.859 C 136.809
               19.741 141.998 17.022 148.221 17.279 L 148.221 13.138 Z M 164.24 13.138 C 155.36 13.138 148.82 19.8 148.82 29.16 C 148.82 38.52 155.541 45.24 165.381 45.24 C 170.361
               45.24 174.741 43.44 177.561 40.08 L 175.16 37.32 C 172.76 40.08 169.34 41.459 165.5 41.459 C 158.6 41.459 153.56 37.078 153.08 30.478 L 179.48 30.478 C 180.154 20.219
               173.467 13.129 164.24 13.138 Z M 164.24 16.798 C 170.42 16.798 174.921 21.118 175.461 27.298 L 153.08 27.298 C 153.62 21.118 158.12 16.798 164.24 16.798 Z M 112.258
               16.859 C 118.978 16.859 123.959 21.78 123.959 29.16 C 123.959 36.54 118.978 41.459 112.258 41.459 C 105.538 41.459 100.498 36.54 100.498 29.16 C 100.498 21.78 105.538
               16.859 112.258 16.859 Z M 16.561 18.539 C 21.481 18.539 25.021 21.719 25.621 26.339 L 7.439 26.339 C 8.159 21.659 11.701 18.539 16.561 18.539 Z">
        </path>

    </g>

</svg>