<?xml version="1.0" encoding="UTF-8" standalone="no"?>
<svg
   xmlns:dc="http://purl.org/dc/elements/1.1/"
   xmlns:cc="http://creativecommons.org/ns#"
   xmlns:rdf="http://www.w3.org/1999/02/22-rdf-syntax-ns#"
   xmlns:svg="http://www.w3.org/2000/svg"
   xmlns="http://www.w3.org/2000/svg"
   width="96"
   height="96"
   viewBox="0 0 96 96"
   style="shape-rendering:crispEdges">
  <metadata>
    <rdf:RDF>
      <cc:Work
         rdf:about="">
        <dc:format>image/svg+xml</dc:format>
        <dc:type
           rdf:resource="http://purl.org/dc/dcmitype/StillImage" />
        <dc:title />
        <dc:rights>
          <cc:Agent>
            <dc:title>Copyright © 2017 Maxim Rysevets. All rights reserved.</dc:title>
          </cc:Agent>
        </dc:rights>
        <dc:creator>
          <cc:Agent>
            <dc:title>Maxim Rysevets</dc:title>
          </cc:Agent>
        </dc:creator>
      </cc:Work>
    </rdf:RDF>
  </metadata>
  <path
     id="ico_user_anonymous"
     style="fill:#000000;fill-opacity:0.07843137;shape-rendering:auto"
     d="m 47.861427,0.04 c -14.117639,0 -28.239108,10.661292 -28.239108,26.654651 0,15.993319 11.297947,23.989999 28.239108,23.989999 16.94116,0 28.230972,-7.99668 28.230972,-23.989999 C 76.092399,10.701292 61.979055,0.04 47.861427,0.04 Z m 0,61.311391 C 16.802627,61.351391 0,77.341145 0,96 l 96,0 C 96,77.341145 78.920266,61.351391 47.861427,61.351391 Z" />
  <path
     id="ico_user_anonymous_sign"
     style="shape-rendering:auto;fill:#000000;fill-opacity:1"
     d="m 48,16 c -4.40248,0 -8,3.29129 -8,7.31904 l 2.66667,0 c 0,-2.70924 2.37202,-4.87936 5.33333,-4.87936 2.96131,0 5.33333,2.17012 5.33333,4.87936 0,2.70923 -2.37202,4.87936 -5.33333,4.87936 l -1.33333,0 0,4.87935 2.66666,0 0,-2.94477 C 53.01507,29.47969 56,26.87189 56,23.31904 56,19.29129 52.40248,16 48,16 Z m -1.33333,19.51743 0,2.48257 2.66666,0 0,-2.48257 -2.66666,0 z" />
</svg>
