<?xml version="1.0" encoding="UTF-8"?>
<svg
   xmlns="http://www.w3.org/2000/svg"
   xmlns:dc="http://purl.org/dc/elements/1.1/"
   xmlns:cc="http://creativecommons.org/ns#"
   xmlns:rdf="http://www.w3.org/1999/02/22-rdf-syntax-ns#"
   width="240"
   height="80"
   viewBox="0 0 240 80"
   style="shape-rendering:crispEdges">
  <metadata>
    <rdf:RDF>
      <cc:Work>
        <dc:format>image/svg+xml</dc:format>
        <dc:type rdf:resource="http://purl.org/dc/dcmitype/StillImage" />
        <dc:rights><cc:Agent><dc:title>Copyright © 2017—2018 Maxim Rysevets. All rights reserved.</dc:title></cc:Agent></dc:rights>
        <dc:creator><cc:Agent><dc:title>Maxim Rysevets</dc:title></cc:Agent></dc:creator>
      </cc:Work>
    </rdf:RDF>
  </metadata>
  <path
     style="fill: #333333"
     d="M 43.175781 27.529297 C 33.635781 27.529297 26.615234 34.368203 26.615234 43.908203 C 26.615234 53.448203 33.574453 60.349609 44.314453 60.349609 C 49.834453 60.349609 54.334844 58.548906 57.214844 55.128906 L 53.195312 50.509766 C 50.915312 52.849766 48.094141 53.988281 44.494141 53.988281 C 38.914141 53.988281 35.015234 50.988594 34.115234 46.308594 L 59.255859 46.308594 C 59.315859 45.588594 59.375 44.689844 59.375 44.089844 C 59.375 34.069844 52.535781 27.529297 43.175781 27.529297 z M 114.7168 28.128906 C 105.2968 28.128906 98.457031 34.728438 98.457031 44.148438 C 98.457031 53.568438 105.2968 60.228516 114.7168 60.228516 C 120.0568 60.228516 124.55813 58.068281 127.07812 53.988281 L 123.89844 51.828125 C 121.73844 55.008125 118.3768 56.449219 114.7168 56.449219 C 107.8168 56.449219 102.77734 51.588438 102.77734 44.148438 C 102.77734 36.768437 107.8168 31.849609 114.7168 31.849609 C 118.3768 31.849609 121.73844 33.349297 123.89844 36.529297 L 127.07812 34.369141 C 124.55813 30.229141 120.0568 28.128906 114.7168 28.128906 z M 144.30078 28.128906 C 135.06078 28.128906 128.2207 34.788438 128.2207 44.148438 C 128.2207 53.508437 135.06078 60.228516 144.30078 60.228516 C 153.54078 60.228516 160.32227 53.508438 160.32227 44.148438 C 160.32227 34.788438 153.54078 28.128906 144.30078 28.128906 z M 181.51953 28.128906 C 175.69953 28.128906 171.67922 30.348828 169.69922 34.548828 L 169.69922 28.369141 L 165.61914 28.369141 L 165.61914 59.929688 L 169.87891 59.929688 L 169.87891 43.849609 C 169.87891 36.409609 173.89805 32.208984 180.49805 32.208984 C 180.79805 32.208984 181.15953 32.269531 181.51953 32.269531 L 181.51953 28.128906 z M 197.66211 28.128906 C 188.78211 28.128906 182.24219 34.788438 182.24219 44.148438 C 182.24219 53.508437 188.96273 60.228516 198.80273 60.228516 C 203.78273 60.228516 208.16242 58.428359 210.98242 55.068359 L 208.58203 52.308594 C 206.18203 55.068594 202.76187 56.449219 198.92188 56.449219 C 192.02187 56.449219 186.98195 52.06875 186.50195 45.46875 L 212.90234 45.46875 C 212.90234 44.98875 212.96289 44.508438 212.96289 44.148438 C 212.96289 34.668437 206.54211 28.128906 197.66211 28.128906 z M 197.66211 31.789062 C 203.84211 31.789062 208.34281 36.109063 208.88281 42.289062 L 186.50195 42.289062 C 187.04195 36.109063 191.54211 31.789062 197.66211 31.789062 z M 144.30078 31.849609 C 151.02078 31.849609 156.00195 36.768437 156.00195 44.148438 C 156.00195 51.528438 151.02078 56.449219 144.30078 56.449219 C 137.58078 56.449219 132.54102 51.528437 132.54102 44.148438 C 132.54102 36.768437 137.58078 31.849609 144.30078 31.849609 z M 43.175781 33.529297 C 48.095781 33.529297 51.634375 36.708125 52.234375 41.328125 L 34.054688 41.328125 C 34.774687 36.648125 38.315781 33.529297 43.175781 33.529297 z " />
  <path
     style="fill: #00c60c"
     d="M 75.601562 14.988281 C 68.161563 14.988281 64.140625 19.369844 64.140625 26.089844 L 64.140625 28.128906 L 58.861328 28.128906 L 58.861328 34.128906 L 64.140625 34.128906 L 64.140625 59.929688 L 71.640625 59.929688 L 71.640625 34.128906 L 77.609375 34.128906 L 80.220703 34.128906 L 82.888672 34.128906 L 82.888672 59.929688 L 90.388672 59.929688 L 90.388672 34.128906 L 98.96875 34.128906 L 98.96875 28.128906 L 90.148438 28.128906 L 90.148438 26.208984 C 90.148438 22.788984 91.768672 21.048828 94.888672 21.048828 C 96.448672 21.048828 97.889297 21.589141 99.029297 22.369141 L 101.12891 16.728516 C 99.448903 15.528516 96.929609 14.988281 94.349609 14.988281 C 86.909609 14.988281 82.888672 19.369844 82.888672 26.089844 L 82.888672 28.128906 L 80.220703 28.128906 L 77.609375 28.128906 L 71.400391 28.128906 L 71.400391 26.208984 C 71.400391 22.788984 73.020625 21.048828 76.140625 21.048828 C 77.700625 21.048828 79.14125 21.589141 80.28125 22.369141 L 82.380859 16.728516 C 80.700859 15.528516 78.181562 14.988281 75.601562 14.988281 z " />
</svg>
