<?xml version="1.0" encoding="UTF-8"?>
<svg
   xmlns="http://www.w3.org/2000/svg"
   xmlns:dc="http://purl.org/dc/elements/1.1/"
   xmlns:cc="http://creativecommons.org/ns#"
   xmlns:rdf="http://www.w3.org/1999/02/22-rdf-syntax-ns#"
   width="100"
   height="25"
   viewBox="0 0 100 25"
   style="shape-rendering:crispEdges">
  <metadata>
    <rdf:RDF>
      <cc:Work>
        <dc:format>image/svg+xml</dc:format>
        <dc:type rdf:resource="http://purl.org/dc/dcmitype/StillImage" />
        <dc:rights><cc:Agent><dc:title>Copyright © 2017—2018 Maxim Rysevets. All rights reserved.</dc:title></cc:Agent></dc:rights>
        <dc:creator><cc:Agent><dc:title>Maxim Rysevets</dc:title></cc:Agent></dc:creator>
      </cc:Work>
    </rdf:RDF>
  </metadata>
  <path style="fill:#333333;shape-rendering:auto" d="M 8.887 6.73 C 3.768 6.73 0 10.4 0 15.519 C 0 20.639 3.734 24.342 9.498 24.342 C 12.46 24.342 14.875 23.376 16.421 21.541 L 14.264 19.062 C 13.04 20.317 11.526 20.929 9.594 20.929 C 6.6 20.929 4.508 19.319 4.025 16.807 L 17.516 16.807 C 17.548 16.421 17.58 15.939 17.58 15.617 C 17.58 10.24 13.91 6.73 8.887 6.73 Z M 47.278 7.052 C 42.223 7.052 38.553 10.593 38.553 15.648 C 38.553 20.703 42.223 24.277 47.278 24.277 C 50.144 24.277 52.559 23.118 53.911 20.929 L 52.205 19.769 C 51.046 21.476 49.242 22.249 47.278 22.249 C 43.575 22.249 40.871 19.641 40.871 15.648 C 40.871 11.688 43.575 9.048 47.278 9.048 C 49.242 9.048 51.046 9.853 52.205 11.56 L 53.911 10.4 C 52.559 8.179 50.144 7.052 47.278 7.052 Z M 63.154 7.052 C 58.195 7.052 54.525 10.625 54.525 15.648 C 54.525 20.671 58.195 24.277 63.154 24.277 C 68.112 24.277 71.751 20.671 71.751 15.648 C 71.751 10.625 68.112 7.052 63.154 7.052 Z M 83.127 7.052 C 80.004 7.052 77.846 8.243 76.783 10.497 L 76.783 7.181 L 74.594 7.181 L 74.594 24.117 L 76.88 24.117 L 76.88 15.488 C 76.88 11.495 79.036 9.241 82.578 9.241 C 82.739 9.241 82.934 9.274 83.127 9.274 L 83.127 7.052 Z M 91.789 7.052 C 87.024 7.052 83.514 10.625 83.514 15.648 C 83.514 20.671 87.121 24.277 92.401 24.277 C 95.074 24.277 97.424 23.311 98.937 21.508 L 97.649 20.027 C 96.361 21.508 94.526 22.249 92.465 22.249 C 88.762 22.249 86.058 19.898 85.8 16.356 L 99.967 16.356 C 99.967 16.099 100 15.841 100 15.648 C 100 10.561 96.554 7.052 91.789 7.052 Z M 91.789 9.016 C 95.105 9.016 97.521 11.334 97.811 14.651 L 85.8 14.651 C 86.09 11.334 88.505 9.016 91.789 9.016 Z M 63.154 9.048 C 66.76 9.048 69.433 11.688 69.433 15.648 C 69.433 19.608 66.76 22.249 63.154 22.249 C 59.548 22.249 56.843 19.608 56.843 15.648 C 56.843 11.688 59.548 9.048 63.154 9.048 Z M 8.887 9.95 C 11.527 9.95 13.426 11.656 13.748 14.135 L 3.993 14.135 C 4.379 11.623 6.279 9.95 8.887 9.95 Z" />
  <path style="fill:#00c60c;shape-rendering:auto" d="M 26.288 0 C 22.295 0 20.138 2.352 20.138 5.958 L 20.138 7.052 L 17.304 7.052 L 17.304 10.272 L 20.138 10.272 L 20.138 24.117 L 24.162 24.117 L 24.162 10.272 L 27.365 10.272 L 28.767 10.272 L 30.198 10.272 L 30.198 24.117 L 34.223 24.117 L 34.223 10.272 L 38.827 10.272 L 38.827 7.052 L 34.094 7.052 L 34.094 6.022 C 34.094 4.186 34.964 3.253 36.638 3.253 C 37.475 3.253 38.248 3.542 38.86 3.961 L 39.986 0.934 C 39.085 0.29 37.733 0 36.349 0 C 32.356 0 30.198 2.352 30.198 5.958 L 30.198 7.052 L 28.767 7.052 L 27.365 7.052 L 24.033 7.052 L 24.033 6.022 C 24.033 4.186 24.903 3.253 26.577 3.253 C 27.414 3.253 28.187 3.542 28.799 3.961 L 29.926 0.934 C 29.024 0.29 27.672 0 26.288 0 Z" />
</svg>
