<?xml version="1.0" encoding="UTF-8" standalone="no"?>
<svg
   xmlns:dc="http://purl.org/dc/elements/1.1/"
   xmlns:cc="http://creativecommons.org/ns#"
   xmlns:rdf="http://www.w3.org/1999/02/22-rdf-syntax-ns#"
   xmlns:svg="http://www.w3.org/2000/svg"
   xmlns="http://www.w3.org/2000/svg"
   width="150"
   height="48"
   viewBox="0 0 48 150"
   style="shape-rendering:crispEdges">
  <metadata>
    <rdf:RDF>
      <cc:Work
         rdf:about="">
        <dc:format>image/svg+xml</dc:format>
        <dc:type
           rdf:resource="http://purl.org/dc/dcmitype/StillImage" />
        <dc:title />
        <dc:rights>
          <cc:Agent>
            <dc:title>Copyright © 2017 Maxim Rysevets. All rights reserved.</dc:title>
          </cc:Agent>
        </dc:rights>
        <dc:creator>
          <cc:Agent>
            <dc:title>Maxim Rysevets</dc:title>
          </cc:Agent>
        </dc:creator>
      </cc:Work>
    </rdf:RDF>
  </metadata>
  <path
     id="bg"
     style="fill:black;fill-opacity:0.03921569;shape-rendering:auto"
     d="m -210.375,-3.3527613e-6 468.75001,0 L 258.37501,150 -210.375,150 Z" />
  <path
     id="text_logo"
     style="fill:%%_color;shape-rendering:auto"
     d="M 56.886719 12.519531 L 56.886719 30.519531 L 63.828125 30.519531 L 63.828125 29.619141 L 57.785156 29.619141 L 57.785156 12.519531 L 56.886719 12.519531 z M 69.451172 17.40625 C 67.496886 17.40625 65.902344 18.511898 65.902344 20.980469 L 65.902344 27.203125 C 65.902344 29.671696 67.496886 30.777344 69.451172 30.777344 C 71.431172 30.777344 73.025391 29.671696 73.025391 27.203125 L 73.025391 20.980469 C 73.025391 18.511898 71.431172 17.40625 69.451172 17.40625 z M 79.494141 17.40625 C 77.539855 17.40625 75.947266 18.511898 75.947266 20.980469 L 75.947266 27.203125 C 75.947266 29.671696 77.539855 30.777344 79.494141 30.777344 C 80.368426 30.777344 81.269922 30.494118 82.169922 30.185547 L 82.169922 33.425781 C 82.169922 35.277208 80.985569 36.099609 79.494141 36.099609 C 78.439855 36.099609 77.283114 35.843392 76.048828 35.40625 L 76.048828 36.382812 C 77.205971 36.768524 78.362712 37 79.494141 37 C 81.474141 37 83.068359 35.894351 83.068359 33.425781 L 83.068359 17.662109 L 82.169922 17.662109 L 82.169922 18.023438 C 81.269922 17.689152 80.368426 17.40625 79.494141 17.40625 z M 89.539062 17.40625 C 87.584777 17.40625 85.990234 18.511898 85.990234 20.980469 L 85.990234 27.203125 C 85.990234 29.671696 87.584777 30.777344 89.539062 30.777344 C 91.519062 30.777344 93.113281 29.671696 93.113281 27.203125 L 93.113281 20.980469 C 93.113281 18.511898 91.519062 17.40625 89.539062 17.40625 z M 69.451172 18.306641 C 70.9426 18.306641 72.125 19.12904 72.125 20.980469 L 72.125 27.203125 C 72.125 29.054553 70.9426 29.876953 69.451172 29.876953 C 67.959743 29.876953 66.775391 29.054553 66.775391 27.203125 L 66.775391 20.980469 C 66.775391 19.12904 67.959743 18.306641 69.451172 18.306641 z M 79.494141 18.306641 C 80.316998 18.306641 81.218493 18.46096 82.169922 18.769531 L 82.169922 29.439453 C 81.218493 29.72231 80.316998 29.876953 79.494141 29.876953 C 78.002712 29.876953 76.820312 29.054553 76.820312 27.203125 L 76.820312 20.980469 C 76.820312 19.12904 78.002712 18.306641 79.494141 18.306641 z M 89.539062 18.306641 C 91.030491 18.306641 92.214844 19.12904 92.214844 20.980469 L 92.214844 27.203125 C 92.214844 29.054553 91.030491 29.876953 89.539062 29.876953 C 88.047634 29.876953 86.865234 29.054553 86.865234 27.203125 L 86.865234 20.980469 C 86.865234 19.12904 88.047634 18.306641 89.539062 18.306641 z "
     transform="matrix(3.1250001,0,0,3.1250001,-210.375,0)" />
</svg>
