<?xml version="1.0" encoding="UTF-8" standalone="no"?>
<svg
   xmlns:dc="http://purl.org/dc/elements/1.1/"
   xmlns:cc="http://creativecommons.org/ns#"
   xmlns:rdf="http://www.w3.org/1999/02/22-rdf-syntax-ns#"
   xmlns:svg="http://www.w3.org/2000/svg"
   xmlns="http://www.w3.org/2000/svg"
   width="150"
   height="70"
   viewBox="0 0 70 150"
   style="shape-rendering:crispEdges">
  <metadata>
    <rdf:RDF>
      <cc:Work
         rdf:about="">
        <dc:format>image/svg+xml</dc:format>
        <dc:type
           rdf:resource="http://purl.org/dc/dcmitype/StillImage" />
        <dc:title />
        <dc:rights>
          <cc:Agent>
            <dc:title>Copyright © 2017 Maxim Rysevets. All rights reserved.</dc:title>
          </cc:Agent>
        </dc:rights>
        <dc:creator>
          <cc:Agent>
            <dc:title>Maxim Rysevets</dc:title>
          </cc:Agent>
        </dc:creator>
      </cc:Work>
    </rdf:RDF>
  </metadata>
  <path
     id="bg"
     style="shape-rendering:auto;fill:#000000;fill-opacity:0.08"
     d="m -125.71427,6.386212e-7 321.42856,0 L 195.71429,150 l -321.42856,0 z" />
  <path
     id="text_logo"
     style="shape-rendering:auto;fill:#000000"
     d="m 46.728516,17.826172 0,28.09375 10.835937,0 0,-1.404297 -9.431641,0 0,-26.689453 -1.404296,0 z m 19.609375,7.625 c -3.050134,0 -5.53711,1.727278 -5.53711,5.580078 l 0,9.710938 c 0,3.8528 2.486976,5.580078 5.53711,5.580078 3.090267,0 5.578125,-1.727278 5.578125,-5.580078 l 0,-9.710938 c 0,-3.8528 -2.487858,-5.580078 -5.578125,-5.580078 z m 15.677734,0 c -3.050134,0 -5.539062,1.727278 -5.539063,5.580078 l 0,9.710938 c 0,3.8528 2.488929,5.580078 5.539063,5.580078 1.364533,0 2.769161,-0.442228 4.173828,-0.923828 l 0,5.05664 c 0,2.8896 -1.846095,4.173828 -4.173828,4.173828 -1.645467,0 -3.452506,-0.401717 -5.378906,-1.083984 l 0,1.52539 c 1.806,0.602001 3.613039,0.962891 5.378906,0.962891 3.090267,0 5.578125,-1.725325 5.578125,-5.578125 l 0,-24.601562 -1.404297,0 0,0.5625 c -1.404667,-0.521734 -2.809295,-0.964844 -4.173828,-0.964844 z m 15.677734,0 c -3.050133,0 -5.539062,1.727278 -5.539062,5.580078 l 0,9.710938 c 0,3.8528 2.488929,5.580078 5.539062,5.580078 3.090271,0 5.578121,-1.727278 5.578121,-5.580078 l 0,-9.710938 c 0,-3.8528 -2.48785,-5.580078 -5.578121,-5.580078 z m -31.355468,1.40625 c 2.327733,0 4.173828,1.284228 4.173828,4.173828 l 0,9.710938 c 0,2.8896 -1.846095,4.173828 -4.173828,4.173828 -2.327734,0 -4.173828,-1.284228 -4.173829,-4.173828 l 0,-9.710938 c 0,-2.8896 1.846095,-4.173828 4.173829,-4.173828 z m 15.677734,0 c 1.284267,0 2.688895,0.239103 4.173828,0.720703 l 0,16.65625 c -1.484933,0.441467 -2.889561,0.681641 -4.173828,0.681641 -2.327733,0 -4.173828,-1.284228 -4.173828,-4.173828 l 0,-9.710938 c 0,-2.8896 1.846095,-4.173828 4.173828,-4.173828 z m 15.677734,0 c 2.327731,0 4.173831,1.284228 4.173831,4.173828 l 0,9.710938 c 0,2.8896 -1.8461,4.173828 -4.173831,4.173828 -2.327733,0 -4.173828,-1.284228 -4.173828,-4.173828 l 0,-9.710938 c 0,-2.8896 1.846095,-4.173828 4.173828,-4.173828 z"
     transform="matrix(2.142857,0,0,2.1428571,-125.71427,0)" />
</svg>
