<?xml version="1.0" encoding="UTF-8" standalone="no"?>
<svg
   xmlns:dc="http://purl.org/dc/elements/1.1/"
   xmlns:cc="http://creativecommons.org/ns#"
   xmlns:rdf="http://www.w3.org/1999/02/22-rdf-syntax-ns#"
   xmlns:svg="http://www.w3.org/2000/svg"
   xmlns="http://www.w3.org/2000/svg"
   width="150"
   height="70"
   viewBox="0 0 70 150"
   version="1.1"
   style="shape-rendering:crispEdges">
  <metadata
     id="metadata4">
    <rdf:RDF>
      <cc:Work
         rdf:about="">
        <dc:format>image/svg+xml</dc:format>
        <dc:type
           rdf:resource="http://purl.org/dc/dcmitype/StillImage" />
        <dc:title />
        <dc:rights>
          <cc:Agent>
            <dc:title>Copyright © 2017 Maxim Rysevets. All rights reserved.</dc:title>
          </cc:Agent>
        </dc:rights>
        <dc:creator>
          <cc:Agent>
            <dc:title>Maxim Rysevets</dc:title>
          </cc:Agent>
        </dc:creator>
      </cc:Work>
    </rdf:RDF>
  </metadata>
  <path
     id="bg"
     style="shape-rendering:auto;fill:#000000;fill-opacity:0.2"
     d="m -125.71427,6.386212e-7 321.42856,0 L 195.71429,150 l -321.42856,0 z" />
  <path
     id="figure"
     style="shape-rendering:auto;fill:#000000"
     d="M 0,0 0,0.5 0,70 150,70 150,0 0,0 Z M 2.1953125,1 147.80469,1 75,34.451172 2.1953125,1 Z M 1,1.5488281 73.804688,35 1,68.451172 1,1.5488281 Z m 148,0 0,66.9023439 L 76.195312,35 149,1.5488281 Z M 75,35.548828 147.80469,69 2.1953125,69 75,35.548828 Z"
     transform="matrix(2.142857,0,0,2.1428571,-125.71427,0)" />
</svg>
